# xmcd
#
# Track frame offsets:
# 151
# 16854
# 44755
# 66054
# 95039
# 110348
# 130723
# 148528
# 165225
# 182364
#
# Disc length: 3012 seconds
#
# Revision: 0
# Processed by: cddbd v1.5.1PL2 Copyright (c) Steve Scherf et al.
# Submitted via: Audion 3.0.2 (http://www.panic.com/audion/)
#
DISCID=7c0bc20a
DTITLE=me - bassdrums
DYEAR=1900
DGENRE=
TTITLE0=t
TTITLE1=i
TTITLE2=i
TTITLE3=i
TTITLE4=i
TTITLE5=i
TTITLE6=i
TTITLE7=i
TTITLE8=i
TTITLE9=i
EXTD=
EXTT0=
EXTT1=
EXTT2=
EXTT3=
EXTT4=
EXTT5=
EXTT6=
EXTT7=
EXTT8=
EXTT9=
PLAYORDER=
